<svg width="18" height="20" viewBox="0 0 18 20" fill="none" xmlns="http://www.w3.org/2000/svg">
    <path d="M9.5 2V2.5H10H17C17.2762 2.5 17.5 2.72386 17.5 3C17.5 3.27614 17.2762 3.5 17 3.5H1C0.723862 3.5 0.5 3.27614 0.5 3C0.5 2.72386 0.723862 2.5 1 2.5H8H8.5V2V1C8.5 0.723856 8.72385 0.5 9 0.5C9.27615 0.5 9.5 0.723856 9.5 1V2Z" fill="#9F9F9F" stroke="#9F9F9F"/>
    <path d="M6.5 6C6.5 5.72386 6.72386 5.5 7 5.5C7.27615 5.5 7.5 5.72386 7.5 6V15C7.5 15.2762 7.27616 15.5 7 15.5C6.72386 15.5 6.5 15.2762 6.5 15V6Z" fill="#9F9F9F" stroke="#9F9F9F"/>
    <path d="M10.5 6C10.5 5.72385 10.7238 5.5 11 5.5C11.2762 5.5 11.5 5.72386 11.5 6V15C11.5 15.2762 11.2762 15.5 11 15.5C10.7238 15.5 10.5 15.2762 10.5 15V6Z" fill="#9F9F9F" stroke="#9F9F9F"/>
    <path d="M3.5 18V18.5H4H14H14.5V18V6C14.5 5.72386 14.7238 5.5 15 5.5C15.2762 5.5 15.5 5.72386 15.5 6V19C15.5 19.2762 15.2762 19.5 15 19.5H3C2.72386 19.5 2.5 19.2762 2.5 19V6C2.5 5.72386 2.72386 5.5 3 5.5C3.27614 5.5 3.5 5.72386 3.5 6V18Z" fill="#9F9F9F" stroke="#9F9F9F"/>
</svg>
