<svg width="24" height="24" viewBox="0 0 24 24" fill="none" xmlns="http://www.w3.org/2000/svg">
<path fill-rule="evenodd" clip-rule="evenodd" d="M17.9138 3.50009C17.1327 2.71904 15.8664 2.71905 15.0853 3.50009L4.50654 14.0789C4.22734 14.3581 4.03703 14.7137 3.95959 15.1009L3.31314 18.3331C3.03325 19.7325 4.2671 20.9664 5.66654 20.6865L8.89877 20.0401C9.28595 19.9626 9.64155 19.7723 9.92075 19.4931L20.4995 8.91431C21.2806 8.13326 21.2806 6.86693 20.4995 6.08588L17.9138 3.50009ZM13.4138 8.00009L16.4995 4.91431L19.0853 7.50009L15.9995 10.5859L13.4138 8.00009ZM11.9995 9.41431L5.92075 15.4931L5.2743 18.7253L8.50654 18.0789L14.5853 12.0001L11.9995 9.41431Z" fill="#ffc800"/>
</svg>
