<svg width="15" height="15" viewBox="0 0 24 24" fill="none" xmlns="http://www.w3.org/2000/svg">
    <path d="M7 17.5H9V13.5H7V17.5ZM5 17.5V12.7C5 12.3817 5.12643 12.0765 5.35147 11.8515C5.57652 11.6264 5.88174 11.5 6.2 11.5H9V8.7C9 8.38174 9.12643 8.07652 9.35147 7.85147C9.57652 7.62643 9.88174 7.5 10.2 7.5H13V4.7C13 4.54241 13.031 4.38637 13.0913 4.24078C13.1517 4.09519 13.24 3.9629 13.3515 3.85147C13.5765 3.62643 13.8817 3.5 14.2 3.5H17.8C17.9576 3.5 18.1136 3.53104 18.2592 3.59134C18.4048 3.65165 18.5371 3.74004 18.6485 3.85147C18.76 3.9629 18.8483 4.09519 18.9087 4.24078C18.969 4.38637 19 4.54241 19 4.7V17.5H5ZM15 5.5V17.5H17V5.5H15ZM11 17.5H13V9.5H11V17.5ZM4 19.5H20C20.2652 19.5 20.5196 19.6054 20.7071 19.7929C20.8946 19.9804 21 20.2348 21 20.5C21 20.7652 20.8946 21.0196 20.7071 21.2071C20.5196 21.3946 20.2652 21.5 20 21.5H4C3.73478 21.5 3.48043 21.3946 3.29289 21.2071C3.10536 21.0196 3 20.7652 3 20.5C3 20.2348 3.10536 19.9804 3.29289 19.7929C3.48043 19.6054 3.73478 19.5 4 19.5Z" fill="#7B7B7B"/>
</svg>