<svg width="24" height="24" viewBox="0 0 24 24" fill="none" xmlns="http://www.w3.org/2000/svg">
    <path d="M19.75 18.7188C20.0625 19.0312 20.0625 19.5 19.75 19.7812C19.625 19.9375 19.4375 20 19.25 20C19.0312 20 18.8438 19.9375 18.6875 19.7812L14.5 15.5938C13.375 16.5 11.9688 17 10.4688 17C6.90625 17 4 14.0938 4 10.5C4 6.9375 6.875 4 10.4688 4C14.0312 4 16.9688 6.9375 16.9688 10.5C16.9688 12.0312 16.4688 13.4375 15.5625 14.5312L19.75 18.7188ZM5.5 10.5C5.5 13.2812 7.71875 15.5 10.5 15.5C13.25 15.5 15.5 13.2812 15.5 10.5C15.5 7.75 13.25 5.5 10.5 5.5C7.71875 5.5 5.5 7.75 5.5 10.5Z" fill="#A0A6BF"/>
</svg>
